<svg xmlns="http://www.w3.org/2000/svg" xmlns:xlink="http://www.w3.org/1999/xlink" width="500" zoomAndPan="magnify" viewBox="0 0 375 374.999991" height="500" preserveAspectRatio="xMidYMid meet" version="1.0"><defs><g/><clipPath id="b7a426a1d2"><path d="M 156 103 L 254.835938 103 L 254.835938 186.316406 L 156 186.316406 Z M 156 103 " clip-rule="nonzero"/></clipPath><clipPath id="61ba98fdcb"><path d="M 119.835938 102.316406 L 198 102.316406 L 198 186 L 119.835938 186 Z M 119.835938 102.316406 " clip-rule="nonzero"/></clipPath></defs><g clip-path="url(#b7a426a1d2)"><path fill="#457d58" d="M 215.507812 132.765625 C 211.660156 124.421875 205.921875 115.742188 198.289062 106.722656 C 175.042969 110.902344 160.957031 113.574219 156.027344 114.75 C 179.214844 146.375 193.695312 170.199219 199.464844 186.214844 C 214.023438 174.929688 223.089844 168.011719 226.660156 165.457031 L 223.335938 154.101562 C 228.65625 140.453125 239.152344 123.742188 254.839844 103.972656 C 239.902344 120.300781 223.074219 140.796875 204.359375 165.453125 C 196.175781 151.613281 186.851562 140.253906 176.382812 131.386719 C 183.414062 132.59375 192.539062 136.835938 203.773438 144.109375 L 215.511719 132.753906 Z M 215.507812 132.765625 " fill-opacity="1" fill-rule="evenodd"/></g><g clip-path="url(#61ba98fdcb)"><path fill="#272727" d="M 184.789062 184.648438 C 167.28125 161.488281 147.710938 143.738281 126.09375 131.394531 C 134.800781 127.640625 142.753906 125.421875 149.960938 124.734375 C 162.253906 137.953125 176.917969 157.742188 193.957031 184.101562 C 190.375 175.332031 185.355469 166.542969 180.53125 158.617188 C 171.921875 144.445312 162.296875 130.710938 152.492188 117.34375 L 148.585938 112.015625 L 155.015625 110.484375 C 159.765625 109.355469 164.679688 108.46875 169.476562 107.558594 C 178.792969 105.785156 188.132812 104.09375 197.464844 102.414062 L 119.828125 102.414062 L 119.828125 157.726562 C 144.8125 167.109375 164.152344 176.375 177.839844 185.535156 C 164.679688 173.246094 147.789062 162.675781 127.164062 153.8125 L 139.292969 148.527344 C 158.871094 161.417969 174.03125 173.457031 184.785156 184.65625 Z M 184.789062 184.648438 " fill-opacity="1" fill-rule="evenodd"/></g><g fill="#272727" fill-opacity="1"><g transform="translate(69.612348, 233.010438)"><g><path d="M 2.4375 -14.90625 C 2.4375 -17.632812 3.125 -20.164062 4.5 -22.5 C 5.875 -24.84375 7.722656 -26.707031 10.046875 -28.09375 C 12.378906 -29.488281 14.921875 -30.1875 17.671875 -30.1875 C 20.398438 -30.1875 22.929688 -29.488281 25.265625 -28.09375 C 27.609375 -26.707031 29.472656 -24.84375 30.859375 -22.5 C 32.253906 -20.164062 32.953125 -17.632812 32.953125 -14.90625 C 32.953125 -12.15625 32.265625 -9.609375 30.890625 -7.265625 C 29.515625 -4.929688 27.648438 -3.082031 25.296875 -1.71875 C 22.941406 -0.351562 20.398438 0.328125 17.671875 0.328125 C 14.921875 0.328125 12.375 -0.34375 10.03125 -1.6875 C 7.695312 -3.039062 5.847656 -4.878906 4.484375 -7.203125 C 3.117188 -9.535156 2.4375 -12.101562 2.4375 -14.90625 Z M 6.5625 -14.859375 C 6.5625 -12.828125 7.054688 -10.941406 8.046875 -9.203125 C 9.046875 -7.472656 10.40625 -6.097656 12.125 -5.078125 C 13.84375 -4.054688 15.71875 -3.546875 17.75 -3.546875 C 19.789062 -3.546875 21.65625 -4.046875 23.34375 -5.046875 C 25.039062 -6.054688 26.378906 -7.4375 27.359375 -9.1875 C 28.335938 -10.9375 28.828125 -12.84375 28.828125 -14.90625 C 28.828125 -16.96875 28.332031 -18.878906 27.34375 -20.640625 C 26.351562 -22.410156 25.003906 -23.800781 23.296875 -24.8125 C 21.585938 -25.832031 19.710938 -26.34375 17.671875 -26.34375 C 15.640625 -26.34375 13.769531 -25.828125 12.0625 -24.796875 C 10.351562 -23.765625 9.007812 -22.367188 8.03125 -20.609375 C 7.050781 -18.847656 6.5625 -16.929688 6.5625 -14.859375 Z M 6.5625 -14.859375 "/></g></g></g><g fill="#272727" fill-opacity="1"><g transform="translate(104.993678, 233.010438)"><g><path d="M 14.171875 -17.796875 C 15.765625 -17.796875 17.207031 -17.410156 18.5 -16.640625 C 19.789062 -15.867188 20.804688 -14.785156 21.546875 -13.390625 C 22.296875 -12.003906 22.671875 -10.40625 22.671875 -8.59375 C 22.671875 -6.800781 22.269531 -5.222656 21.46875 -3.859375 C 20.675781 -2.492188 19.578125 -1.441406 18.171875 -0.703125 C 16.765625 0.0351562 15.195312 0.40625 13.46875 0.40625 C 12.226562 0.40625 11.039062 0.140625 9.90625 -0.390625 C 8.78125 -0.929688 7.875 -1.65625 7.1875 -2.5625 L 7.1875 8.21875 L 3.34375 8.21875 L 3.34375 -17.390625 L 6.6875 -17.390625 L 7.015625 -14.5 C 7.898438 -15.488281 8.953125 -16.285156 10.171875 -16.890625 C 11.398438 -17.492188 12.734375 -17.796875 14.171875 -17.796875 Z M 12.71875 -2.6875 C 13.789062 -2.6875 14.785156 -2.941406 15.703125 -3.453125 C 16.628906 -3.960938 17.367188 -4.660156 17.921875 -5.546875 C 18.472656 -6.441406 18.75 -7.441406 18.75 -8.546875 C 18.75 -9.671875 18.492188 -10.6875 17.984375 -11.59375 C 17.472656 -12.507812 16.773438 -13.226562 15.890625 -13.75 C 15.015625 -14.269531 14.039062 -14.53125 12.96875 -14.53125 C 11.507812 -14.53125 10.265625 -14.125 9.234375 -13.3125 C 8.203125 -12.5 7.519531 -11.40625 7.1875 -10.03125 L 7.1875 -7.1875 C 7.40625 -5.863281 8.03125 -4.78125 9.0625 -3.9375 C 10.09375 -3.101562 11.3125 -2.6875 12.71875 -2.6875 Z M 12.71875 -2.6875 "/></g></g></g><g fill="#272727" fill-opacity="1"><g transform="translate(129.475736, 233.010438)"><g><path d="M 8.875 -24.609375 L 8.875 -17.0625 L 13.546875 -17.0625 L 13.546875 -14 L 8.875 -14 L 8.875 0 L 5 0 L 5 -14 L 1.859375 -14 L 1.859375 -17.0625 L 5 -17.0625 L 5 -24.609375 Z M 8.875 -24.609375 "/></g></g></g><g fill="#272727" fill-opacity="1"><g transform="translate(144.338372, 233.010438)"><g><path d="M 7.1875 -17.09375 L 7.1875 0 L 3.34375 0 L 3.34375 -17.09375 Z M 3.046875 -23.25 C 3.046875 -23.851562 3.28125 -24.363281 3.75 -24.78125 C 4.21875 -25.195312 4.753906 -25.40625 5.359375 -25.40625 C 5.972656 -25.40625 6.503906 -25.195312 6.953125 -24.78125 C 7.410156 -24.363281 7.640625 -23.851562 7.640625 -23.25 C 7.640625 -22.644531 7.410156 -22.132812 6.953125 -21.71875 C 6.503906 -21.3125 5.972656 -21.109375 5.359375 -21.109375 C 4.753906 -21.109375 4.21875 -21.3125 3.75 -21.71875 C 3.28125 -22.132812 3.046875 -22.644531 3.046875 -23.25 Z M 3.046875 -23.25 "/></g></g></g><g fill="#272727" fill-opacity="1"><g transform="translate(154.866066, 233.010438)"><g><path d="M 1.859375 -8.71875 C 1.859375 -10.394531 2.265625 -11.925781 3.078125 -13.3125 C 3.890625 -14.707031 5.015625 -15.800781 6.453125 -16.59375 C 7.898438 -17.394531 9.535156 -17.796875 11.359375 -17.796875 C 13.171875 -17.796875 14.785156 -17.394531 16.203125 -16.59375 C 17.617188 -15.800781 18.71875 -14.71875 19.5 -13.34375 C 20.289062 -11.96875 20.6875 -10.425781 20.6875 -8.71875 C 20.6875 -7.007812 20.289062 -5.457031 19.5 -4.0625 C 18.71875 -2.675781 17.613281 -1.582031 16.1875 -0.78125 C 14.757812 0.0078125 13.125 0.40625 11.28125 0.40625 C 9.488281 0.40625 7.875 0.03125 6.4375 -0.71875 C 5.007812 -1.476562 3.890625 -2.546875 3.078125 -3.921875 C 2.265625 -5.296875 1.859375 -6.894531 1.859375 -8.71875 Z M 5.734375 -8.671875 C 5.734375 -7.597656 5.972656 -6.609375 6.453125 -5.703125 C 6.941406 -4.796875 7.601562 -4.078125 8.4375 -3.546875 C 9.28125 -3.023438 10.210938 -2.765625 11.234375 -2.765625 C 12.828125 -2.765625 14.144531 -3.328125 15.1875 -4.453125 C 16.238281 -5.585938 16.765625 -6.992188 16.765625 -8.671875 C 16.765625 -10.347656 16.238281 -11.757812 15.1875 -12.90625 C 14.144531 -14.050781 12.828125 -14.625 11.234375 -14.625 C 10.179688 -14.625 9.242188 -14.351562 8.421875 -13.8125 C 7.597656 -13.28125 6.941406 -12.554688 6.453125 -11.640625 C 5.972656 -10.734375 5.734375 -9.742188 5.734375 -8.671875 Z M 5.734375 -8.671875 "/></g></g></g><g fill="#272727" fill-opacity="1"><g transform="translate(177.366442, 233.010438)"><g><path d="M 13.953125 -17.75 C 15.554688 -17.75 16.878906 -17.273438 17.921875 -16.328125 C 18.960938 -15.378906 19.5 -14.148438 19.53125 -12.640625 L 19.53125 0 L 15.65625 0 L 15.65625 -11.3125 C 15.59375 -12.28125 15.300781 -13.035156 14.78125 -13.578125 C 14.257812 -14.128906 13.476562 -14.421875 12.4375 -14.453125 C 10.914062 -14.453125 9.660156 -13.84375 8.671875 -12.625 C 7.679688 -11.414062 7.1875 -9.878906 7.1875 -8.015625 L 7.1875 0 L 3.34375 0 L 3.34375 -17.09375 L 6.8125 -17.09375 L 7.0625 -13.796875 C 7.664062 -15.035156 8.570312 -16.003906 9.78125 -16.703125 C 11 -17.398438 12.390625 -17.75 13.953125 -17.75 Z M 13.953125 -17.75 "/></g></g></g><g fill="#457d58" fill-opacity="1"><g transform="translate(200.19437, 233.010438)"><g><path d="M 28.203125 1.328125 L 21.234375 -16.515625 L 13.59375 1.40625 L 1.6875 -29.734375 L 6.359375 -29.734375 L 14.078125 -8.015625 L 19.25 -21.5625 L 16.0625 -29.734375 L 20.03125 -29.734375 L 28.328125 -8.46875 L 35.6875 -29.734375 L 39.96875 -29.734375 Z M 28.203125 1.328125 "/></g></g></g><g fill="#457d58" fill-opacity="1"><g transform="translate(241.809743, 233.010438)"><g><path d="M 8.296875 -29.859375 L 8.296875 0 L 4.296875 0 L 4.296875 -29.859375 Z M 8.296875 -29.859375 "/></g></g></g><g fill="#457d58" fill-opacity="1"><g transform="translate(254.401699, 233.010438)"><g><path d="M 19.734375 -24.53125 C 18.660156 -25.101562 17.519531 -25.566406 16.3125 -25.921875 C 15.101562 -26.285156 13.960938 -26.46875 12.890625 -26.46875 C 11.265625 -26.46875 9.972656 -26.101562 9.015625 -25.375 C 8.066406 -24.644531 7.59375 -23.648438 7.59375 -22.390625 C 7.59375 -21.148438 8.148438 -20.132812 9.265625 -19.34375 C 10.378906 -18.5625 11.972656 -17.785156 14.046875 -17.015625 C 15.585938 -16.460938 16.882812 -15.863281 17.9375 -15.21875 C 19 -14.570312 19.878906 -13.675781 20.578125 -12.53125 C 21.285156 -11.382812 21.640625 -9.929688 21.640625 -8.171875 C 21.640625 -6.578125 21.238281 -5.132812 20.4375 -3.84375 C 19.644531 -2.550781 18.507812 -1.53125 17.03125 -0.78125 C 15.5625 -0.0390625 13.835938 0.328125 11.859375 0.328125 C 10.003906 0.328125 8.222656 0.03125 6.515625 -0.5625 C 4.816406 -1.15625 3.320312 -1.90625 2.03125 -2.8125 L 3.796875 -5.984375 C 4.816406 -5.210938 6.039062 -4.554688 7.46875 -4.015625 C 8.90625 -3.484375 10.242188 -3.21875 11.484375 -3.21875 C 13.078125 -3.21875 14.472656 -3.628906 15.671875 -4.453125 C 16.867188 -5.285156 17.46875 -6.515625 17.46875 -8.140625 C 17.46875 -9.515625 16.960938 -10.609375 15.953125 -11.421875 C 14.953125 -12.234375 13.546875 -12.992188 11.734375 -13.703125 C 10.046875 -14.335938 8.644531 -14.957031 7.53125 -15.5625 C 6.414062 -16.175781 5.457031 -17.007812 4.65625 -18.0625 C 3.863281 -19.125 3.46875 -20.453125 3.46875 -22.046875 C 3.46875 -24.390625 4.285156 -26.285156 5.921875 -27.734375 C 7.566406 -29.179688 9.695312 -29.941406 12.3125 -30.015625 C 15.53125 -30.015625 18.515625 -29.21875 21.265625 -27.625 Z M 19.734375 -24.53125 "/></g></g></g><g fill="#457d58" fill-opacity="1"><g transform="translate(278.429621, 233.010438)"><g><path d="M 23.703125 -29.859375 L 23.703125 -26.015625 L 8.296875 -26.015625 L 8.296875 -16.9375 L 22.046875 -16.9375 L 22.046875 -13.09375 L 8.296875 -13.09375 L 8.296875 -3.875 L 24.28125 -3.875 L 24.28125 0 L 4.296875 0 L 4.296875 -29.859375 Z M 23.703125 -29.859375 "/></g></g></g></svg>